<?xml version="1.0" encoding="UTF-8"?> <svg xmlns="http://www.w3.org/2000/svg" width="97" height="28" viewBox="0 0 97 28" fill="none"><path d="M39.6305 9.0792C38.1027 8.21999 36.3634 7.78516 34.4595 7.78516C32.5557 7.78516 30.8359 8.22129 29.3147 9.08051C27.7947 9.93842 26.5856 11.1189 25.7237 12.5892C24.8632 14.0569 24.4258 15.6879 24.4258 17.4363C24.4258 19.1848 24.8619 20.8301 25.7237 22.2926C26.5856 23.7577 27.7934 24.9355 29.3147 25.7934C30.8359 26.6526 32.5622 27.0875 34.4413 27.0875C36.3203 27.0875 38.0871 26.6553 39.6201 25.8026C41.1544 24.9499 42.3688 23.7721 43.2306 22.3004C44.0911 20.8314 44.5286 19.1952 44.5286 17.4363C44.5286 15.6774 44.0924 14.0582 43.2306 12.5892C42.3688 11.1189 41.157 9.93842 39.6305 9.0792ZM37.0502 21.8956C36.2955 22.3265 35.4311 22.5459 34.4778 22.5459C33.5246 22.5459 32.6602 22.3278 31.9054 21.8956C31.1506 21.4647 30.5461 20.8549 30.1099 20.0845C29.6712 19.3101 29.4479 18.4183 29.4479 17.435C29.4479 16.4517 29.6712 15.5742 30.1099 14.7934C30.5461 14.0177 31.1533 13.4027 31.9145 12.9653C32.6745 12.5291 33.5363 12.3071 34.4765 12.3071C35.4167 12.3071 36.2785 12.5291 37.0385 12.9653C37.7998 13.4027 38.407 14.0177 38.8431 14.7934C39.2819 15.5742 39.5051 16.4635 39.5051 17.435C39.5051 18.4065 39.2832 19.3088 38.8431 20.0845C38.407 20.8549 37.8024 21.4647 37.0476 21.8956" fill="white"></path><path d="M51.879 19.9181C51.879 22.4566 53.1887 22.7504 54.1746 22.7504H57.7799C57.7916 22.7504 57.8008 22.7596 57.8008 22.7713V27.0543C57.8008 27.0661 57.7916 27.0752 57.7799 27.0752H53.2801C51.4481 27.0752 49.902 26.5555 48.685 25.5331C47.4471 24.4937 46.8203 22.5389 46.8203 19.7223V4.63768C46.8203 3.45071 47.7775 2.48573 48.9644 2.47528L49.697 2.46875C50.9009 2.46875 51.8777 3.44549 51.8777 4.64943V7.84734C51.8777 7.85909 51.8868 7.86823 51.8986 7.86823H55.6162C56.8214 7.86823 57.7995 8.84627 57.7995 10.0515V10.1351C57.7995 11.3404 56.8214 12.3184 55.6162 12.3184H51.8986C51.8868 12.3184 51.8777 12.3275 51.8777 12.3393V19.9181H51.879Z" fill="white"></path><path d="M96.9995 27.0951H92.027V15.92C92.027 14.7252 91.728 13.7864 91.1391 13.1309C90.5476 12.4714 89.751 12.1502 88.7038 12.1502C87.6565 12.1502 86.8613 12.4701 86.2763 13.1295C85.6913 13.7864 85.3949 14.7252 85.3949 15.9174V27.0938H80.4054V15.9187C80.4054 14.7239 80.1064 13.7851 79.5175 13.1295C78.9259 12.4701 78.1294 12.1489 77.0822 12.1489C76.0349 12.1489 75.2397 12.4688 74.6547 13.1282C74.0697 13.7864 73.7733 14.7239 73.7733 15.9161V27.0925H68.8008V15.9109C68.8008 13.3071 69.5098 11.5587 70.9097 10.087C72.316 8.61017 74.3922 7.86195 77.0822 7.86195C80.0986 7.86195 81.9685 9.34012 82.4686 9.79453L82.9687 10.2124L83.5472 9.76319C84.9587 8.62193 86.8874 7.91027 88.6999 7.86326C91.3598 7.79666 93.5196 8.58798 94.9259 10.1562C96.3009 11.6318 97.0008 13.3594 97.0008 15.9109V27.0938L96.9995 27.0951Z" fill="white"></path><path d="M12.396 27.0848L9.66683 27.0704C4.34178 27.0691 0 22.7169 0 17.3683V3.26177C0 1.7379 1.23137 0.5 2.75524 0.5C4.2791 0.5 5.51047 1.73398 5.51047 3.26307V17.3748C5.51047 19.6757 7.38038 21.5508 9.67336 21.5508L12.4025 21.5652C14.6929 21.5652 16.5654 19.7109 16.5654 17.4349C16.5654 15.1589 14.6955 13.3047 12.3907 13.3047H11.0431C9.52189 13.3047 8.28791 12.0707 8.28791 10.5416C8.28791 9.01251 9.51928 7.77852 11.0431 7.77852H12.3907C17.7301 7.77852 22.0719 12.1059 22.0719 17.4297C22.0719 22.7534 17.7314 27.0808 12.3907 27.0808V27.0861L12.3946 27.0822L12.396 27.0848Z" fill="white"></path><path d="M2.7461 6.05343C4.26343 6.05343 5.49219 4.82076 5.49219 3.2995C5.49219 1.77824 4.26343 0.546875 2.7461 0.546875C1.22876 0.546875 0 1.77955 0 3.30081C0 4.82206 1.22876 6.05474 2.7461 6.05474V6.05343Z" fill="#B3BCF2"></path><path d="M11.0391 13.295C12.5564 13.295 13.7852 12.0623 13.7852 10.541C13.7852 9.01978 12.5564 7.78711 11.0391 7.78711C9.52173 7.78711 8.29297 9.01978 8.29297 10.541C8.29297 12.0623 9.52173 13.295 11.0391 13.295Z" fill="#B3BCF2"></path><path d="M65.8523 10.3991V27.0781H60.7949V10.3991C60.7949 9.00192 61.9271 7.87109 63.3229 7.87109C64.7188 7.87109 65.851 9.00322 65.851 10.3991H65.8523Z" fill="white"></path><path d="M63.3242 6.05343C64.8416 6.05343 66.0703 4.82076 66.0703 3.2995C66.0703 1.77824 64.8416 0.546875 63.3242 0.546875C61.8069 0.546875 60.5781 1.77955 60.5781 3.30081C60.5781 4.82206 61.8069 6.05474 63.3242 6.05474V6.05343Z" fill="#B3BCF2"></path></svg> 