<svg width="700" height="172" viewBox="0 0 700 172" fill="none" xmlns="http://www.w3.org/2000/svg">
<path d="M0 111.242V167.982H54.6506V55.3412C40.1564 55.3412 26.2558 61.2301 16.0068 71.7123C5.75782 82.1946 0 96.4116 0 111.236" fill="#3D44E3"/>
<path d="M54.6382 7.0059e-07V55.9009C61.8175 55.8959 68.9273 57.3385 75.561 60.1459C82.1948 62.9534 88.2225 67.0707 93.2992 72.2625C98.376 77.4543 102.402 83.6186 105.148 90.4031C107.894 97.1876 109.305 104.459 109.301 111.802V167.978H163.964V111.802C163.964 97.1187 161.136 82.5794 155.642 69.0142C150.147 55.449 142.094 43.1235 131.942 32.7416C121.79 22.3596 109.738 14.1246 96.4744 8.50681C83.2105 2.88898 68.9945 -0.00164299 54.6382 7.0059e-07Z" fill="#3D44E3"/>
<path d="M218.102 57.2234H249.404V72.7927H251.528C259.561 60.2772 269.932 53.9818 283.044 53.9818C307.573 53.9818 323.867 73.4498 323.867 100.058V167.986H292.565V104.595C292.565 90.9591 284.941 81.441 272.251 81.441C259.775 81.441 249.404 91.6099 249.404 105.665V167.986H218.102V57.2234Z" fill="black"/>
<path d="M338.174 112.605C338.174 76.9047 362.073 53.7821 398.239 53.7821C434.198 53.7821 458.317 76.9359 458.317 112.605C458.317 148.513 434.198 171.429 398.239 171.429C362.073 171.429 338.174 148.275 338.174 112.605ZM426.801 112.605C426.801 94.22 414.955 81.2351 398.239 81.2351C381.322 81.2351 369.482 94.22 369.482 112.605C369.482 130.991 381.328 144.188 398.239 144.188C414.955 144.188 426.801 130.991 426.801 112.605Z" fill="black"/>
<path d="M458.797 57.2247H491.788L518.025 141.811H520.142L546.58 57.2247H579.363L541.709 167.988H496.451L458.797 57.2247Z" fill="black"/>
<path d="M579.855 112.605C579.855 76.9047 603.754 53.7821 639.921 53.7821C675.88 53.7821 699.999 76.9359 699.999 112.605C699.999 148.513 675.88 171.429 639.921 171.429C603.754 171.429 579.855 148.275 579.855 112.605ZM668.482 112.605C668.482 94.22 656.637 81.2351 639.921 81.2351C623.003 81.2351 611.164 94.22 611.164 112.605C611.164 130.991 623.003 144.188 639.921 144.188C656.637 144.188 668.482 130.991 668.482 112.605Z" fill="black"/>
</svg>
